<svg width="846" height="439" viewBox="0 0 846 439" fill="none" xmlns="http://www.w3.org/2000/svg">
<path d="M35.25 72.1189L0 49.4934V321H0.215565L0.31896 377.651L35.5738 390.06C70.8286 402.469 141.338 427.286 211.818 435.467C282.297 443.648 352.746 435.191 423.164 410.098C444.831 402.377 466.496 393.081 488.16 383.785C536.905 362.869 585.65 341.952 634.427 338.978C704.884 334.68 775.409 367.817 810.671 384.385L845.934 400.953L845.788 321H846V83.4317L810.75 66.4626C775.5 49.4934 705 15.5551 634.5 4.24229C564 -7.07048 493.5 4.24229 423 38.1806C401.308 48.6232 379.615 61.2078 357.923 73.7924C309.115 102.108 260.308 130.423 211.5 134.339C141 139.996 70.5 94.7445 35.25 72.1189Z" fill="#0099FF"/>
</svg>
