<svg width="2240" height="733" viewBox="0 0 2240 733" fill="none" xmlns="http://www.w3.org/2000/svg">
<path d="M26.1333 114.797L0 132.799L0.632522 653.558L27.0746 617.875C29.986 614.206 33.1576 610.159 36.5642 605.813C66.2704 567.911 113.845 507.212 162.562 475.506C215.01 440.14 268.877 440.798 320.304 489.433C347.661 514.414 374.863 552.047 401.819 589.338C427.368 624.682 452.694 659.72 477.719 683.386C531.004 732.044 583.014 732.679 637.391 691.336C659.706 673.761 682.448 648.607 705.386 623.237L705.387 623.237C736.435 588.896 767.841 554.16 799.03 537.285C851.404 507.919 904.981 532.577 956.699 557.213L959.506 558.505L959.746 558.616C1012.24 582.79 1063.02 606.177 1116.08 589.163C1138.46 581.986 1160.62 567.611 1182.71 553.272C1214.01 532.964 1245.2 512.727 1276.77 513.113C1325.38 513.706 1374.98 566.73 1423.18 618.266C1426.55 621.871 1429.92 625.469 1433.28 629.042C1486.49 683.7 1539.77 732.358 1591.78 732.993C1638.57 733.565 1684.41 697.9 1731.28 661.423L1731.28 661.419C1738.37 655.904 1745.48 650.371 1752.62 644.942C1805.14 603.577 1859.44 568.234 1913.17 580.892C1939.1 587.21 1965.35 605.533 1991.6 623.856L1991.6 623.857C2017.85 642.18 2044.1 660.503 2070.03 666.821C2121.35 678.911 2171.5 647.188 2200.36 628.93L2200.4 628.904C2201.74 628.056 2203.04 627.237 2204.28 626.453L2230.51 608.77L2240 60.7928L2213.87 96.7959C2211 100.479 2207.88 104.539 2204.54 108.898L2204.48 108.973C2175.09 147.234 2128.03 208.509 2079.47 240.808C2027.2 276.812 1973.07 276.812 1920.8 228.807C1893.01 204.162 1865.22 166.864 1837.68 129.906C1811.58 94.8754 1785.7 60.1497 1760.27 36.7907C1706.13 -11.2134 1653.87 -11.2134 1599.73 30.7902C1577.53 48.637 1554.98 74.0667 1532.24 99.715L1532.24 99.7157C1501.46 134.432 1470.33 169.549 1439.2 186.804C1386.93 216.806 1332.8 192.804 1280.53 168.802C1279.51 168.347 1278.48 167.892 1277.45 167.437C1224.42 143.905 1173.11 121.139 1120 138.8C1097.6 146.249 1075.51 160.893 1053.49 175.501L1053.48 175.502C1022.29 196.191 991.197 216.806 959.467 216.806C910.617 216.806 860.138 164.392 811.075 113.448L811.075 113.448C807.643 109.884 804.217 106.327 800.8 102.796C746.667 48.7918 692.533 0.787596 640.267 0.787596C593.244 0.787596 547.629 37.0095 500.976 74.0559L500.971 74.0599C493.918 79.6603 486.842 85.2796 479.733 90.7954C427.467 132.799 373.333 168.802 319.2 156.801C293.067 150.801 266.467 132.799 239.867 114.797C213.267 96.7959 186.667 78.7943 160.533 72.7938C108.828 61.331 58.8247 93.6634 30.0446 112.273C28.6934 113.147 27.389 113.99 26.1333 114.797Z" fill="black"/>
</svg>

