<svg width="2240" height="964" viewBox="0 0 2240 964" fill="none" xmlns="http://www.w3.org/2000/svg">
<path fill-rule="evenodd" clip-rule="evenodd" d="M1166.68 782.102L1126.61 789.823C1086.54 797.544 1006.4 812.986 926.48 803.191C846.56 793.396 766.862 758.364 686.794 765.394C606.726 772.424 526.289 821.516 446.221 828.546C366.153 835.575 286.455 800.543 206.313 815.985C126.171 831.428 45.5857 897.344 5.29291 930.303L-34.9999 963.261L-31.0064 508.99L8.99052 509.682C48.9875 510.373 128.981 511.755 208.975 513.138C288.969 514.521 368.963 515.903 448.957 517.286C528.951 518.668 608.945 520.051 688.939 521.434C768.933 522.816 848.927 524.199 928.921 525.581C1008.91 526.964 1088.91 528.347 1128.91 529.038L1168.9 529.729L1166.68 782.102Z" fill="black"/>
<path fill-rule="evenodd" clip-rule="evenodd" d="M1040 201.778L1080 193.37C1120 184.963 1200 168.148 1280 176.556C1360 184.963 1440 218.593 1520 210.185C1600 201.778 1680 151.333 1760 142.926C1840 134.519 1920 168.148 2000 151.333C2080 134.519 2160 67.2593 2200 33.6296L2240 0V454H2200C2160 454 2080 454 2000 454C1920 454 1840 454 1760 454C1680 454 1600 454 1520 454C1440 454 1360 454 1280 454C1200 454 1120 454 1080 454H1040V201.778Z" fill="black"/>
<rect y="215" width="2241" height="406" fill="black"/>
</svg>

