<svg width="2248" height="776" viewBox="0 0 2248 776" fill="none" xmlns="http://www.w3.org/2000/svg">
<path fill-rule="evenodd" clip-rule="evenodd" d="M1 82.6382L94.3333 70.6181C187.667 58.598 374.333 34.5578 561 16.5276C747.667 -1.50251 934.333 -13.5226 1121 28.5477C1307.67 70.6181 1494.33 166.779 1681 184.809C1867.67 202.839 2054.33 142.739 2147.67 112.688L2241 82.6382V299H2147.67C2054.33 299 1867.67 299 1681 299C1494.33 299 1307.67 299 1121 299C934.333 299 747.667 299 561 299C374.333 299 187.667 299 94.3333 299H1V82.6382Z" fill="#0099FF"/>
<path fill-rule="evenodd" clip-rule="evenodd" d="M2246.74 687.575L2153.09 700.429C2059.45 713.282 1872.16 738.989 1684.9 758.124C1497.63 777.259 1310.39 789.822 1123.33 743.235C936.263 696.649 749.385 590.913 562.242 570.615C375.098 550.317 187.689 615.457 93.985 648.027L0.280557 680.597L1.01547 444L94.6178 444.291C188.22 444.582 375.425 445.163 562.63 445.745C749.834 446.326 937.039 446.908 1124.24 447.489C1311.45 448.07 1498.65 448.652 1685.86 449.233C1873.06 449.815 2060.27 450.396 2153.87 450.687L2247.47 450.978L2246.74 687.575Z" fill="#0099FF"/>
<rect x="1" y="265" width="2240" height="213" fill="#D9D9D9"/>
</svg>