<svg width="2249" height="541" viewBox="0 0 2249 541" fill="none" xmlns="http://www.w3.org/2000/svg">
<path d="M2171.64 503.264L2247 538L2246.5 83.815L2171.35 77.2301C2097.2 70.0465 1946.9 56.8767 1797.6 77.2301C1648.3 96.9848 1498 150.861 1348.7 137.093C1199.4 123.923 1049.1 43.7068 899.799 43.7068C750.5 43.7068 600.198 123.923 450.899 130.508C301.6 137.093 151.299 70.0465 77.1506 36.5233L2 3L3.39467 469.389L78.5453 475.769C152.699 482.787 303 495.548 452.042 473.029C601.089 451.14 750.874 393.327 900.179 406.726C1049.48 419.494 1200.29 502.828 1349.49 501.734C1498.69 500.639 1648.28 415.101 1797.42 407.075C1946.57 399.049 2097.29 468.521 2171.64 503.264Z" fill="white" stroke="black" stroke-width="3"/>
</svg>
