<svg width="2245" height="537" viewBox="0 0 2245 537" fill="none" xmlns="http://www.w3.org/2000/svg">
<path d="M2151.46 32.162L2245 0L2245 413.857L2151.46 441.222C2057.92 468.587 1936.08 537 1749 537C1582.7 537 1351.16 480.074 1184.86 436.83C1164.07 431.425 1143.29 426.019 1122.5 420.698C935.417 372.809 748.333 331.762 561.25 352.286C374.167 372.809 187.083 454.905 93.5417 495.952L0 537V96.4862L93.5417 75.0448C187.083 53.6034 249.917 0 437 0C603.296 0 888.704 132.117 1055 166C1075.79 170.235 1132.21 161.831 1153 166C1340.08 203.522 1496.67 160.81 1683.75 144.729C1870.83 128.648 2057.92 64.3241 2151.46 32.162Z" fill="black"/>
</svg>

