<svg width="2240" height="964" viewBox="0 0 2240 964" fill="none" xmlns="http://www.w3.org/2000/svg">
<path d="M1095 803.294L1166.68 782.102C1379 649 1407.6 442 1754 454H1997H2199.5H2240V0L2199.5 33.6296C2159 67.2593 2078 134.519 1997 151.333C1916 168.148 1835 134.519 1754 142.926C1673 151.333 1592 201.778 1511 210.185C1430 218.593 1349 184.963 1268 176.556C1187 168.148 1106 184.963 1065.5 193.37L1025 201.778C818.585 261.923 475.429 507.132 232.685 513.548L37.6398 510.177L-1.36925 509.503L-5.36267 963.773L33.9422 930.798C73.2471 897.823 151.857 831.872 230.023 816.395C308.189 800.919 385.911 835.917 464.003 828.853C542.095 821.789 620.557 772.663 698.649 765.599C776.741 758.535 854.464 793.533 932.408 803.294C1010.35 813.055 1055.92 811.032 1095 803.294Z" fill="black"/>
</svg>


