<svg width="2248" height="734" viewBox="0 0 2248 734" fill="none" xmlns="http://www.w3.org/2000/svg">
<path d="M26.2267 114.876L0 132.889L0.634781 654.003L27.1713 618.295C30.0931 614.624 33.276 610.575 36.6948 606.225C66.5071 568.298 114.252 507.558 163.143 475.829C215.778 440.44 269.837 441.098 321.448 489.767C348.902 514.765 376.202 552.423 403.254 589.739C428.894 625.108 454.311 660.169 479.425 683.851C532.9 732.543 585.096 733.178 639.668 691.807C662.062 674.219 684.886 649.049 707.906 623.661L707.906 623.661C739.065 589.297 770.583 554.537 801.884 537.651C854.445 508.265 908.213 532.94 960.116 557.592L961.9 558.411L963.174 558.996C1015.85 583.187 1066.82 606.59 1120.07 589.564C1142.53 582.382 1164.76 567.998 1186.94 553.649C1218.35 533.326 1249.65 513.076 1281.33 513.462C1330.11 514.056 1379.89 567.116 1428.26 618.687C1431.65 622.295 1435.03 625.895 1438.39 629.47C1491.8 684.166 1545.27 732.857 1597.47 733.492C1644.43 734.064 1690.42 698.375 1737.46 661.873L1737.47 661.866C1744.58 656.349 1751.71 650.813 1758.88 645.382C1811.59 603.988 1866.09 568.621 1920 581.287C1946.02 587.609 1972.37 605.945 1998.71 624.281C2025.06 642.617 2051.4 660.953 2077.43 667.275C2128.92 679.373 2179.25 647.629 2208.22 629.358L2208.27 629.328C2209.61 628.481 2210.91 627.663 2212.16 626.879L2238.47 609.185L2248 60.8342L2221.77 96.8618C2218.89 100.557 2215.75 104.632 2212.38 109.008L2212.35 109.047C2182.86 147.335 2135.63 208.651 2086.89 240.972C2034.44 277 1980.11 277 1927.66 228.963C1899.77 204.301 1871.88 166.978 1844.24 129.994L1844.24 129.993C1818.04 94.9395 1792.08 60.1905 1766.55 36.8158C1712.23 -11.2211 1659.77 -11.2211 1605.45 30.8112C1583.16 48.6701 1560.53 74.1171 1537.72 99.7829L1537.71 99.784C1506.83 134.524 1475.58 169.664 1444.34 186.931C1391.89 216.954 1337.56 192.936 1285.11 168.917L1283.54 168.223L1282.02 167.551C1228.79 144.003 1177.3 121.222 1124 138.894C1101.52 146.349 1079.35 161.003 1057.25 175.621C1025.94 196.324 994.737 216.954 962.893 216.954C913.87 216.954 863.21 164.503 813.972 113.525L813.972 113.525C810.527 109.959 807.09 106.4 803.66 102.866C749.333 48.825 695.007 0.788132 642.553 0.788132C595.362 0.788132 549.585 37.0347 502.765 74.1064C495.686 79.7119 488.582 85.3364 481.447 90.8572C428.993 132.889 374.667 168.917 320.34 156.908C294.113 150.903 267.418 132.889 240.723 114.876C214.028 96.8618 187.333 78.848 161.107 72.8434C109.216 61.3727 59.0348 93.7272 30.1519 112.35L30.1498 112.351C28.7945 113.225 27.4861 114.068 26.2267 114.876Z" fill="black"/>
</svg>
