<svg width="2240" height="678" viewBox="0 0 2240 678" fill="none" xmlns="http://www.w3.org/2000/svg">
<path fill-rule="evenodd" clip-rule="evenodd" d="M-0.00012207 82.6382L93.2915 70.6181C186.583 58.598 373.167 34.5578 559.75 16.5276C746.333 -1.50251 932.917 -13.5226 1119.5 28.5477C1306.08 70.6181 1492.67 166.779 1679.25 184.809C1865.83 202.839 2052.42 142.739 2145.71 112.688L2239 82.6382V299H2145.71C2052.42 299 1865.83 299 1679.25 299C1492.67 299 1306.08 299 1119.5 299C932.917 299 746.333 299 559.75 299C373.167 299 186.583 299 93.2915 299H-0.00012207V82.6382Z" fill="#0099FF"/>
<path fill-rule="evenodd" clip-rule="evenodd" d="M2238.76 589.55L2145.45 602.405C2052.14 615.26 1865.52 640.969 1678.92 660.106C1492.32 679.243 1305.74 691.808 1119.34 645.223C932.941 598.639 746.727 492.905 560.248 472.609C373.769 452.313 187.025 517.455 93.6528 550.026L0.280631 582.597L1.01555 346L94.2857 346.29C187.556 346.579 374.096 347.159 560.636 347.738C747.177 348.318 933.717 348.897 1120.26 349.477C1306.8 350.056 1493.34 350.635 1679.88 351.215C1866.42 351.794 2052.96 352.374 2146.23 352.663L2239.5 352.953L2238.76 589.55Z" fill="#0099FF"/>
<rect x="-0.00012207" y="265" width="2239" height="88" fill="#D9D9D9"/>
</svg>

